<svg width="24" height="25" viewBox="0 0 24 25" fill="none" xmlns="http://www.w3.org/2000/svg">
<mask id="mask0_1_529" style="mask-type:alpha" maskUnits="userSpaceOnUse" x="0" y="0" width="24" height="25">
<rect y="0.5" width="24" height="24" fill="#D9D9D9"/>
</mask>
<g mask="url(#mask0_1_529)">
<path d="M12.0017 12.3654C12.4993 12.3654 12.9247 12.1882 13.2779 11.8339C13.6311 11.4795 13.8077 11.0536 13.8077 10.556C13.8077 10.0584 13.6305 9.63303 13.2762 9.27983C12.9219 8.92663 12.4959 8.75002 11.9983 8.75002C11.5007 8.75002 11.0753 8.92719 10.7221 9.28153C10.3689 9.63586 10.1923 10.0618 10.1923 10.5594C10.1923 11.057 10.3695 11.4824 10.7238 11.8356C11.0782 12.1888 11.5041 12.3654 12.0017 12.3654ZM12 20.0135C13.9564 18.2622 15.4535 16.5824 16.4914 14.9741C17.5292 13.3657 18.0481 11.9571 18.0481 10.7481C18.0481 8.92501 17.4689 7.42629 16.3106 6.25193C15.1523 5.07756 13.7154 4.49038 12 4.49038C10.2846 4.49038 8.84777 5.07756 7.68944 6.25193C6.53111 7.42629 5.95194 8.92501 5.95194 10.7481C5.95194 11.9571 6.47085 13.3657 7.50867 14.9741C8.5465 16.5824 10.0436 18.2622 12 20.0135ZM12 22.0096C9.48337 19.8288 7.59619 17.7993 6.33849 15.9212C5.08081 14.043 4.45197 12.3186 4.45197 10.7481C4.45197 8.44041 5.19844 6.57215 6.69139 5.1433C8.18432 3.71445 9.95387 3.00002 12 3.00002C14.0462 3.00002 15.8157 3.71445 17.3086 5.1433C18.8016 6.57215 19.5481 8.44041 19.5481 10.7481C19.5481 12.3186 18.9192 14.043 17.6615 15.9212C16.4038 17.7993 14.5167 19.8288 12 22.0096Z" fill="#008B98"/>
</g>
</svg>
