<svg width="24" height="25" viewBox="0 0 24 25" fill="none" xmlns="http://www.w3.org/2000/svg">
<mask id="mask0_1_549" style="mask-type:alpha" maskUnits="userSpaceOnUse" x="0" y="0" width="24" height="25">
<rect y="0.5" width="24" height="24" fill="#D9D9D9"/>
</mask>
<g mask="url(#mask0_1_549)">
<path d="M4.3077 20C3.80257 20 3.375 19.825 3.025 19.475C2.675 19.125 2.5 18.6974 2.5 18.1923V6.80773C2.5 6.3026 2.675 5.87503 3.025 5.52503C3.375 5.17503 3.80257 5.00003 4.3077 5.00003H19.6923C20.1974 5.00003 20.625 5.17503 20.975 5.52503C21.325 5.87503 21.5 6.3026 21.5 6.80773V18.1923C21.5 18.6974 21.325 19.125 20.975 19.475C20.625 19.825 20.1974 20 19.6923 20H4.3077ZM12 13.0577L3.99998 7.94228V18.1923C3.99998 18.282 4.02883 18.3558 4.08653 18.4135C4.14423 18.4712 4.21795 18.5 4.3077 18.5H19.6923C19.782 18.5 19.8557 18.4712 19.9134 18.4135C19.9711 18.3558 20 18.282 20 18.1923V7.94228L12 13.0577ZM12 11.5L19.8461 6.50001H4.15383L12 11.5ZM3.99998 7.94228V6.50001V18.1923C3.99998 18.282 4.02883 18.3558 4.08653 18.4135C4.14423 18.4712 4.21795 18.5 4.3077 18.5H3.99998V7.94228Z" fill="#008B98"/>
</g>
</svg>
