<svg width="24" height="25" viewBox="0 0 24 25" fill="none" xmlns="http://www.w3.org/2000/svg">
<mask id="mask0_1_534" style="mask-type:alpha" maskUnits="userSpaceOnUse" x="0" y="0" width="24" height="25">
<rect y="0.5" width="24" height="24" fill="#D9D9D9"/>
</mask>
<g mask="url(#mask0_1_534)">
<path d="M19.4403 21C17.5557 21 15.6625 20.5618 13.7606 19.6856C11.8586 18.8093 10.1112 17.5731 8.51828 15.9769C6.92533 14.3808 5.69071 12.6333 4.81442 10.7346C3.93814 8.83591 3.5 6.94425 3.5 5.05965C3.5 4.7569 3.6 4.50461 3.8 4.30278C4 4.10094 4.25 4.00002 4.55 4.00002H7.8115C8.06407 4.00002 8.28683 4.0824 8.47977 4.24715C8.67272 4.4119 8.79548 4.61543 8.84803 4.85773L9.4211 7.8C9.46085 8.07308 9.45252 8.3077 9.3961 8.50385C9.3397 8.7 9.23842 8.86474 9.09225 8.99808L6.78265 11.2462C7.15445 11.9269 7.57913 12.5708 8.0567 13.1779C8.53427 13.7849 9.05125 14.3648 9.60765 14.9173C10.1564 15.466 10.7397 15.9757 11.3577 16.4462C11.9756 16.9167 12.6429 17.3545 13.3596 17.7596L15.6038 15.4962C15.7602 15.3334 15.9497 15.2193 16.1721 15.1539C16.3945 15.0885 16.6256 15.0725 16.8654 15.1058L19.6423 15.6712C19.8948 15.7378 20.1009 15.8667 20.2605 16.0577C20.4201 16.2487 20.5 16.4654 20.5 16.7077V19.95C20.5 20.25 20.399 20.5 20.1972 20.7C19.9954 20.9 19.7431 21 19.4403 21ZM6.07305 9.82695L7.85768 8.11925C7.88973 8.0936 7.91056 8.05834 7.92018 8.01348C7.92979 7.96859 7.92819 7.92693 7.91538 7.88848L7.48075 5.65385C7.46793 5.60257 7.4455 5.56411 7.41345 5.53848C7.3814 5.51283 7.33973 5.5 7.28845 5.5H5.14997C5.11152 5.5 5.07948 5.51283 5.05383 5.53848C5.02818 5.56411 5.01535 5.59616 5.01535 5.63463C5.06663 6.31796 5.17849 7.01219 5.35092 7.71733C5.52337 8.42246 5.76408 9.12567 6.07305 9.82695ZM14.773 18.4692C15.4359 18.7782 16.1272 19.0144 16.8471 19.1779C17.567 19.3414 18.2397 19.4385 18.8654 19.4692C18.9038 19.4692 18.9359 19.4564 18.9615 19.4308C18.9872 19.4051 19 19.3731 19 19.3346V17.2308C19 17.1795 18.9872 17.1378 18.9615 17.1058C18.9359 17.0737 18.8974 17.0513 18.8461 17.0385L16.7461 16.6115C16.7077 16.5987 16.674 16.5971 16.6452 16.6067C16.6163 16.6163 16.5859 16.6372 16.5538 16.6692L14.773 18.4692Z" fill="#008B98"/>
</g>
</svg>
